<?xml version="1.0" encoding="UTF-8" standalone="no"?>
<!-- Created with Inkscape (http://www.inkscape.org/) -->

<svg
   xmlns:dc="http://purl.org/dc/elements/1.1/"
   xmlns:cc="http://creativecommons.org/ns#"
   xmlns:rdf="http://www.w3.org/1999/02/22-rdf-syntax-ns#"
   xmlns:svg="http://www.w3.org/2000/svg"
   xmlns="http://www.w3.org/2000/svg"
   xmlns:sodipodi="http://sodipodi.sourceforge.net/DTD/sodipodi-0.dtd"
   xmlns:inkscape="http://www.inkscape.org/namespaces/inkscape"
   id="svg2"
   version="1.1"
   inkscape:version="0.92.3 (2405546, 2018-03-11)"
   width="2347.4324"
   height="819.54077"
   viewBox="0 0 2347.4324 819.54077"
   sodipodi:docname="GARRLAB_logo.svg">
  <metadata
     id="metadata8">
    <rdf:RDF>
      <cc:Work
         rdf:about="">
        <dc:format>image/svg+xml</dc:format>
        <dc:type
           rdf:resource="http://purl.org/dc/dcmitype/StillImage" />
        <dc:title></dc:title>
      </cc:Work>
    </rdf:RDF>
  </metadata>
  <defs
     id="defs6" />
  <sodipodi:namedview
     pagecolor="#ffffff"
     bordercolor="#666666"
     borderopacity="1"
     objecttolerance="10"
     gridtolerance="10"
     guidetolerance="10"
     inkscape:pageopacity="0"
     inkscape:pageshadow="2"
     inkscape:window-width="1920"
     inkscape:window-height="943"
     id="namedview4"
     showgrid="false"
     inkscape:zoom="0.4325304"
     inkscape:cx="899.74883"
     inkscape:cy="137.82228"
     inkscape:window-x="1920"
     inkscape:window-y="36"
     inkscape:window-maximized="1"
     inkscape:current-layer="svg2"
     inkscape:snap-text-baseline="true"
     fit-margin-top="0"
     fit-margin-left="0"
     fit-margin-right="0"
     fit-margin-bottom="0" />
  <rect
     style="fill:#ffffff;fill-opacity:1;stroke:#ffffff;stroke-width:10.34808159;stroke-miterlimit:4;stroke-dasharray:none;stroke-dashoffset:0;stroke-opacity:1"
     id="rect882"
     width="2337.0842"
     height="809.19269"
     x="5.1740408"
     y="5.1740408"
     ry="1.442892" />
  <rect
     style="fill:#006631;fill-opacity:1;stroke:none;stroke-width:19.77031898;stroke-miterlimit:4;stroke-dasharray:none;stroke-dashoffset:0;stroke-opacity:1"
     id="rect842"
     width="1385.0161"
     height="330.23245"
     x="806.64587"
     y="434.57651"
     ry="1.44289" />
  <path
     inkscape:connector-curvature="0"
     id="path3340"
     d="m 550.0613,767.75813 c -2.0625,-0.94441 -7.93178,-1.74247 -13.04285,-1.77348 -15.34654,-0.0931 -24.26126,-6.17222 -27.5787,-18.80638 -1.62819,-6.20079 -5.55689,-11.24999 -8.75345,-11.24999 -1.13531,0 -3.38531,1.40625 -5,3.125 -4.20406,4.475 -7.57819,3.92515 -13.42307,-2.1875 -10.19089,-10.65775 -17.41322,-15.93721 -21.80892,-15.94218 -5.15612,-0.006 -10.91675,-3.43537 -15.57351,-9.27163 -3.13408,-3.9279 -4.25568,-4.47697 -9.1945,-4.5011 -7.23374,-0.0354 -14.26488,-3.3508 -20.9375,-9.87281 -4.12038,-4.02738 -5.3125,-6.11503 -5.3125,-9.30329 0,-2.76854 -1.02033,-5.06925 -3.125,-7.04649 -3.70865,-3.4841 -4.08638,-8.7425 -0.83907,-11.68126 1.59158,-1.44038 4.56043,-2.06874 9.77418,-2.06874 h 7.48828 l 6.52701,-8.75 c 3.58986,-4.8125 7.0263,-8.75 7.63652,-8.75 1.6825,0 4.85914,3.52813 7.12933,7.91819 l 2.03298,3.93132 2.62538,-3.73725 c 1.44397,-2.0555 4.942,-6.12789 7.77342,-9.04976 4.15643,-4.28924 6.00435,-5.3125 9.59378,-5.3125 4.04658,0 5.2679,0.97136 13.60198,10.81815 11.91786,14.08106 12.46144,14.39501 16.53699,9.55151 4.66677,-5.54616 8.38766,-6.05952 16.61596,-2.29249 3.8117,1.74505 8.40927,3.16048 10.21681,3.14538 4.7056,-0.0394 12.33709,-3.921 19.36005,-9.84734 5.1183,-4.31907 6.94671,-5.12521 11.62458,-5.12521 3.05303,0 7.27517,0.89161 9.38252,1.98138 2.7547,1.42449 4.21276,1.60016 5.18793,0.625 0.74601,-0.74602 3.16946,-1.35638 5.38546,-1.35638 2.47922,0 5.46467,-1.20796 7.76107,-3.14025 3.20293,-2.69509 12.40425,-6.85975 15.15578,-6.85975 0.48489,0 1.63421,1.40625 2.55406,3.125 0.91985,1.71875 2.59205,3.125 3.71601,3.125 2.87747,0 9.53087,-7.22255 11.91187,-12.93084 1.81587,-4.35347 1.82183,-5.08472 0.0634,-7.76852 -5.13199,-7.83241 0.69171,-15.73241 13.68378,-18.5624 l 3.75,-0.81684 0.35183,-18.29811 0.35184,-18.2981 -4.00817,-4.1354 c -3.83609,-3.95784 -4.06089,-4.75379 -5.23558,-18.5376 -0.80101,-9.39878 -1.73181,-14.4022 -2.6793,-14.4022 -0.79855,0 -4.44587,0.88911 -8.1052,1.97581 -4.77881,1.41917 -6.89587,1.58333 -7.51431,0.58267 -0.47355,-0.76623 -1.73529,-1.05767 -2.80384,-0.64762 -1.62858,0.62494 -1.84225,-0.1468 -1.32103,-4.77113 0.62112,-5.51052 0.6168,-5.5175 -3.85947,-6.24389 -5.11025,-0.82929 -15.1045,-7.25727 -17.11003,-11.00464 -1.09985,-2.05509 -0.64653,-3.57004 2.48127,-8.29215 2.10482,-3.17771 3.82486,-6.1031 3.82228,-6.50085 -0.0139,-2.14836 -5.23987,-8.8482 -6.90174,-8.8482 -1.06874,0 -4.14835,1.125 -6.84358,2.5 -2.69522,1.375 -6.2859,2.5 -7.9793,2.5 -3.86465,0 -10.7707,-5.68164 -10.7707,-8.86111 0,-1.67849 -0.87918,-2.38889 -2.95642,-2.38889 -3.83163,0 -8.84307,-3.98446 -10.55896,-8.39514 -0.74457,-1.91392 -2.56367,-8.09764 -4.04243,-13.74159 -1.47877,-5.64393 -3.49362,-10.92976 -4.47744,-11.74627 -1.84093,-1.52783 -2.4117,-1.35139 -10.29926,3.18355 -2.74627,1.57896 -3.23539,1.38735 -6.78835,-2.65925 -3.33314,-3.79621 -4.4065,-4.28436 -8.2905,-3.77038 -2.4539,0.32474 -6.78843,1.47437 -9.63227,2.55473 -4.22631,1.60555 -5.89372,1.69135 -9.12992,0.46982 l -3.95929,-1.49446 0.83804,-7.82551 c 0.92726,-8.65864 0.74607,-8.82576 -6.35308,-5.85955 -8.76186,3.66094 -13.79945,0.42011 -15.68548,-10.09095 -0.89029,-4.9616 -2.5843,-9.06168 -5.0052,-12.11419 -2.01269,-2.53781 -3.66805,-5.91281 -3.67858,-7.5 -0.0265,-3.99861 -0.79039,-4.85536 -9.65601,-10.83031 -8.20969,-5.53287 -11.57488,-10.21603 -11.57488,-16.10815 0,-4.33153 -8.32164,-12.99539 -15.25271,-15.87997 -4.70739,-1.95912 -7.51188,-1.49792 -12.46271,2.04952 -1.56079,1.11836 -2.8604,1.14703 -5.12943,0.11325 -2.77171,-1.26288 -3.09936,-2.3014 -3.72525,-11.80738 -0.89359,-13.57167 -1.3209,-14.44145 -7.59033,-15.4495 -2.86801,-0.46115 -6.62082,-1.72832 -8.33957,-2.81595 -5.37514,-3.40136 -13.75,-12.76403 -13.75,-15.3718 0,-1.37146 1.40625,-5.26867 3.125,-8.66046 4.45775,-8.79695 4.13795,-13.87158 -1.25,-19.8354 -4.85281,-5.37149 -5.10908,-7.11306 -2.96074,-20.12174 2.04473,-12.38122 1.21951,-14.46155 -6.468,-16.30575 -6.84934,-1.64314 -17.53467,-8.95098 -25.17729,-17.2191 -3.96623,-4.29084 -5.72055,-5.17709 -12.62956,-6.38023 -4.41294,-0.76848 -10.77772,-2.23278 -14.14396,-3.25399 -3.36625,-1.02121 -7.28539,-1.86283 -8.70921,-1.87028 -2.88912,-0.0151 -20.97403,14.74769 -28.00705,22.86226 -2.50226,2.88708 -5.8116,7.33148 -7.35408,9.87644 -5.3774,8.87229 -24.42926,14.75051 -35.72509,11.02255 -2.56545,-0.84667 -6.54605,-3.19147 -8.84578,-5.21066 l -4.18132,-3.67124 5.32947,-5.32947 c 9.98797,-9.98798 8.31134,-13.69175 -10.43274,-23.04657 l -11.80534,-5.89188 -2.20106,-7.5 c -1.56157,-5.32095 -3.38567,-8.50015 -6.27831,-10.9424 l -4.07724,-3.44239 2.83952,-1.98887 c 1.56174,-1.09389 4.35563,-3.29408 6.20864,-4.88931 l 3.36913,-2.90043 -2.19851,-8.40399 c -1.53931,-5.88415 -3.507,-9.85232 -6.5625,-13.2344 -3.23257,-3.57806 -4.36399,-5.96376 -4.36399,-9.20181 0,-5.80484 2.94528,-8.54038 15.08644,-14.01202 5.45245,-2.45726 9.91356,-5.18087 9.91356,-6.05246 0,-1.82196 -4.80874,-5.85767 -13.13851,-11.02643 -9.55745,-5.93055 -10.01165,-12.29708 -1.46532,-20.53972 5.80832,-5.60193 10.13269,-6.91312 17.20454,-5.21661 4.32495,1.03754 7.20668,1.03747 11.06051,-2.6e-4 2.86643,-0.77185 6.31168,-1.05424 7.65611,-0.62753 1.52753,0.48482 3.67762,-0.1942 5.73212,-1.81027 3.91064,-3.07611 14.20055,-3.702293 14.20055,-0.86416 0,3.18273 2.95709,4.52856 6.29882,2.86673 2.63763,-1.31169 3.18538,-2.66788 3.84216,-9.513083 0.91416,-9.52756 2.72066,-11.32559 11.37886,-11.32559 5.23757,0 6.19481,-0.40184 7.18949,-3.01804 1.38019,-3.63017 4.74623,-4.88498 10.30607,-3.84195 3.74706,0.70295 4.25709,0.42298 5.57106,-3.05811 3.40717,-9.026628 15.10685,-1.3649 28.98387,18.9806 2.22738,3.26562 4.54538,5.9375 5.1511,5.9375 0.60574,0 5.78184,-5.32334 11.50246,-11.82965 l 10.40112,-11.82964 12.79389,0.76254 c 12.37358,0.73749 12.94848,0.65479 17.5,-2.51759 2.58836,-1.80408 7.18411,-6.17034 10.21278,-9.702818 7.11558,-8.2992 11.59758,-10.13515 23.54383,-9.64422 l 9.40215,0.38638 2.72041,-7.22452 c 5.07398,-13.4748 9.31706,-14.91056 19.16174,-6.48389 6.02629,5.15828 9.78305,5.01008 11.08772,-0.43741 0.44183,-1.8448 1.61715,-4.96791 2.61183,-6.94025 1.6875,-3.34614 2.2087,-3.54762 7.78987,-3.01134 7.27153,0.6987 12.43203,4.17174 17.05388,11.47731 2.48716,3.93136 4.74975,5.87454 7.96006,6.83638 2.46686,0.73909 7.56245,3.97647 11.32353,7.19419 7.65669,6.55054 17.62025,11.683888 22.7136,11.702318 2.47835,0.009 4.62475,-1.482558 8.0772,-5.612788 2.8652,-3.4277 5.7398,-5.625 7.35886,-5.625 1.53886,0 4.89998,2.39313 7.98713,5.68689 2.9316,3.12779 5.97623,5.475048 6.76585,5.216128 1.28206,-0.420378 2.66587,-2.239998 7.93947,-10.439788 1.40975,-2.19198 1.77869,-2.04885 5.89836,2.2882 5.92039,6.23277 6.80035,10.282408 3.5312,16.250698 -1.42605,2.60345 -2.07481,5.05368 -1.4417,5.44497 0.63311,0.39128 2.00532,2.36326 3.04933,4.38216 1.67214,3.23357 1.6809,4.09097 0.0735,7.19928 -1.00358,1.9407 -2.64745,4.21138 -3.65306,5.04596 -1.8791,1.55951 -1.51567,5.721273 0.75274,8.619773 0.67548,0.8631 0.87723,3.76379 0.44833,6.44598 -0.75705,4.73429 -0.61689,4.9722 4.79896,8.1461 10.09969,5.91881 14.7274,15.22117 9.94921,19.99935 -2.85635,2.85636 -7.67335,2.4142 -13.98301,-1.2835 -5.53766,-3.24529 -7.6662,-3.38438 -16.74286,-1.09406 -2.4604,0.62084 -3.99129,0.16039 -5.9375,-1.78582 -3.31263,-3.31261 -5.36296,-3.31 -8.3661,0.0106 -3.62356,4.00669 -10.63538,7.13188 -19.03719,8.48496 -4.17057,0.67166 -8.75975,1.85104 -10.19817,2.62086 -2.76052,1.47739 -7.55943,0.58957 -9.00444,-1.66585 -0.52336,-0.81689 -2.6349,0.5434 -5.40841,3.48419 -3.50755,3.71907 -4.3375,5.42487 -3.62289,7.44604 0.50982,1.44198 1.00229,5.23111 1.09436,8.42027 0.1329,4.60361 0.99198,6.73763 4.16895,10.356 6.71178,7.64429 4.55105,13.55358 -5.54624,15.1682 -2.8091,0.4492 -5.73726,1.20595 -6.50701,1.68169 -2.02659,1.2525 -2.33922,30.62611 -0.39699,37.2998 1.85068,6.3591 6.17689,9.07085 14.47122,9.07085 7.01581,0 12.10206,4.08872 19.33721,15.54478 5.81555,9.20828 9.80499,12.68115 16.70024,14.53785 7.54132,2.03067 10.94312,6.10595 10.94312,13.10964 0,4.49184 1.02733,7.4703 4.53901,13.15969 4.41135,7.14696 4.55484,7.76749 5.10178,22.06341 0.30952,8.09029 1.14909,16.67838 1.8657,19.08463 1.81921,6.10861 6.48412,11.95858 13.62966,17.09215 3.35371,2.4094 10.04499,9.3848 14.86949,15.50088 13.60926,17.25266 16.42694,18.08252 46.24436,13.61982 24.63613,-3.68723 32.77725,-1.83794 37.06285,8.41895 2.43393,5.8252 -0.0379,10.6778 -8.93932,17.54915 -7.35965,5.68121 -8.17198,7.93227 -5.04477,13.97964 1.92959,3.7314 4.19283,5.0894 8.48199,5.0894 1.43346,0 7.86341,2.80895 14.28878,6.24211 6.42537,3.43315 15.19091,7.41851 19.47898,8.85634 10.92662,3.6638 15.05769,6.51321 21.69964,14.96735 7.55653,9.61825 15.36606,13.6842 26.28346,13.6842 4.30142,0 9.16052,0.61043 10.79799,1.35651 4.25684,1.93955 7.1404,7.53859 7.1404,13.8646 0,5.00974 0.37951,5.66438 4.59855,7.93214 14.54685,7.81905 20.34198,19.95347 14.24336,29.82421 -1.32445,2.14364 -3.37766,7.7584 -4.56268,12.47724 -1.94144,7.7309 -2.56851,8.75265 -6.33845,10.32782 -7.77968,3.25057 -18.64365,-0.50983 -24.56304,-8.50211 -2.51769,-3.39935 -2.81255,-5.7741 -2.02668,-16.32196 0.2551,-3.42385 -0.17321,-6.5306 -1.01662,-7.37401 -0.82996,-0.82997 -5.65565,-1.52402 -11.20844,-1.61205 -12.54551,-0.1989 -22.17619,-4.87298 -25.28614,-12.27218 -1.08067,-2.57114 -2.27661,-4.68051 -2.65763,-4.6875 -0.38103,-0.007 -3.28257,1.62969 -6.44785,3.63705 -6.84739,4.34249 -14.47839,15.06205 -19.30479,27.11819 -1.8857,4.71039 -5.28503,10.42082 -7.55406,12.68986 -6.39804,6.39804 -5.20792,10.27375 3.16421,10.3044 3.73604,0.0136 14.46176,4.8902 18.42986,8.37926 5.71913,5.02869 6.98153,8.42808 6.08211,16.37784 -0.52597,4.64901 -0.26273,9.77721 0.69522,13.54382 1.92265,7.55973 0.22455,14.87469 -4.47295,19.26828 -3.03355,2.83731 -4.05749,3.02282 -15.10779,2.73729 -6.51954,-0.16848 -12.93069,0.27007 -14.247,0.97455 -3.49126,1.86846 -5.72739,7.10217 -6.53351,15.29186 -0.91089,9.25391 -4.10792,14.29987 -13.05555,20.60592 -9.77425,6.88863 -13.39976,10.95535 -16.99119,19.05898 -4.80644,10.84515 -6.62736,11.92905 -19.38056,11.53618 -9.8518,-0.30347 -11.18822,-0.65518 -15.42408,-4.05922 -2.5507,-2.04977 -5.46627,-3.72691 -6.47902,-3.72691 -1.08549,0 -4.76853,5.72255 -8.97209,13.94045 -3.92189,7.66724 -9.03251,15.84224 -11.35693,18.16666 -5.04162,5.04162 -5.27745,7.64354 -1.10122,12.14977 2.34521,2.53052 3.125,4.73916 3.125,8.85115 0,3.01357 0.57745,6.99802 1.28321,8.85432 1.5034,3.95424 -0.83832,8.58125 -5.01362,9.90644 -3.77125,1.19693 -6.26959,7.1158 -6.26959,14.8534 0,5.90739 -0.45171,7.20166 -3.29358,9.43708 -3.76608,2.9624 -5.8066,3.08588 -11.08142,0.67058 z m 4.58731,-14.51946 c -0.5112,-7.14405 3.3396,-15.35359 8.60765,-18.35072 3.87671,-2.20556 4.4696,-3.32414 2.43004,-4.58467 -0.6875,-0.4249 -1.25,-3.04125 -1.25,-5.81411 0,-3.14883 -0.93858,-6.23476 -2.5,-8.2198 -1.74573,-2.21934 -2.5,-5.07098 -2.5,-9.45168 0,-5.69575 0.45152,-6.69028 4.90342,-10.80025 3.01254,-2.78116 6.56912,-8.18194 9.22288,-14.00522 2.37569,-5.21313 6.37831,-12.69693 8.8947,-16.63068 5.09731,-7.96838 4.92054,-8.05663 -6.36929,-3.17928 -5.06936,2.19002 -5.3547,2.18608 -9.68296,-0.13373 -7.24914,-3.8853 -12.51064,-3.16673 -19.90156,2.71801 -3.52864,2.80955 -8.31849,5.9033 -10.6441,6.875 -5.99145,2.50339 -16.05346,2.16315 -22.49709,-0.76071 -2.99696,-1.3599 -5.65009,-2.47255 -5.89584,-2.47255 -0.24576,0 -2.41557,1.96875 -4.82182,4.375 -2.40625,2.40625 -5.26544,4.375 -6.35375,4.375 -4.06235,0 -9.34378,-3.95742 -18.36424,-13.76053 -6.97681,-7.58213 -9.8215,-9.87987 -11.45543,-9.25287 -1.19553,0.45878 -5.24025,4.98071 -8.98825,10.04876 -7.54373,10.20065 -9.506,10.98071 -15.31871,6.08964 -2.04262,-1.71875 -4.23227,-3.125 -4.86591,-3.125 -0.63362,0 -2.86923,1.93959 -4.968,4.31019 -3.09318,3.49379 -5.04379,4.47306 -10.29845,5.17011 -5.32836,0.70684 -6.32696,1.21911 -5.60882,2.87733 0.48052,1.10955 1.54595,4.50138 2.36762,7.53741 2.16911,8.01471 6.86789,11.3556 15.63433,11.11617 8.36228,-0.22839 11.02117,1.0792 15.5845,7.66408 3.35697,4.84412 3.81556,5.07471 10.09228,5.07471 5.95835,0 6.9385,0.41342 10.44305,4.40489 2.12715,2.42268 6.89342,6.86948 10.59169,9.88179 l 6.72415,5.47688 3.6003,-2.37355 c 10.09093,-6.65256 21.63035,2.29982 27.88998,21.63728 1.84411,5.69691 6.09298,7.20541 20.32405,7.21573 5.38931,0.004 9.972,0.58666 10.42904,1.32618 0.44843,0.72557 1.74726,1.13679 2.88628,0.91382 1.64538,-0.32209 1.98615,-1.59054 1.65826,-6.17263 z m 70.10125,-90.96819 c 2.76585,-7.42829 12.14463,-17.76861 22.41715,-24.71544 6.13925,-4.15169 8.49745,-8.99505 8.51231,-17.4829 0.009,-5.24245 1.72983,-9.55347 5.898,-14.77728 l 3.41223,-4.2764 13.58995,0.77756 c 14.92694,0.85406 14.81442,0.90007 17.0478,-6.97274 0.91267,-3.21725 0.73742,-5.12446 -0.73196,-7.96595 -1.48241,-2.86666 -1.73352,-5.71181 -1.07918,-12.22749 0.80269,-7.99285 0.68041,-8.60445 -2.08221,-10.41458 -1.61425,-1.0577 -6.56461,-2.76982 -11.00081,-3.80472 -9.66188,-2.25396 -13.62848,-4.92076 -16.79004,-11.28818 -3.1663,-6.37695 -1.69781,-12.7733 3.60365,-15.69662 2.82614,-1.55836 4.73001,-4.47128 7.82102,-11.96612 7.39213,-17.92386 17.06378,-28.89945 29.72805,-33.73598 3.16299,-1.20795 6.81733,-1.75847 8.63853,-1.30138 3.65471,0.91727 6.95195,6.51023 6.95195,11.79228 0,5.0066 4.46914,6.68365 16.57261,6.21889 11.20206,-0.43015 14.61876,1.38999 19.41633,10.34341 2.5885,4.83077 2.86145,6.57843 2.16837,13.88368 -0.71269,7.51197 -0.54147,8.49179 1.69273,9.6875 1.36708,0.73164 4.43116,1.33025 6.80905,1.33025 4.47341,0 5.84091,-1.53704 5.84091,-6.56504 0,-1.43581 1.79377,-6.50221 3.98616,-11.25865 4.56923,-9.91309 4.39195,-10.63809 -4.10445,-16.78576 -12.21475,-8.83813 -13.83682,-10.73581 -14.54471,-17.01609 -0.73486,-6.51972 -0.85068,-6.59056 -12.212,-7.46972 -9.41289,-0.7284 -15.29694,-4.14712 -25.625,-14.88852 -8.129,-8.45432 -10.621,-10.23202 -18.75,-13.3756 -5.15625,-1.99398 -14.31064,-6.21633 -20.34309,-9.38302 -6.03245,-3.16667 -12.1163,-5.7576 -13.51967,-5.7576 -6.40652,0 -14.93033,-7.74176 -18.67085,-16.95782 -1.47629,-3.63731 -2.49195,-7.61126 -2.25707,-8.83099 0.2349,-1.21973 2.95578,-4.09442 6.04639,-6.38819 12.32385,-9.14644 12.96931,-9.78211 12.13644,-11.95255 -1.06065,-2.764 -9.78683,-2.81174 -25.89215,-0.14162 -18.83994,3.12349 -28.18198,2.85634 -35.625,-1.01876 -6.68406,-3.47995 -15.27315,-11.79245 -21.7095,-21.0104 -2.17951,-3.12142 -7.59724,-8.42069 -12.03939,-11.77612 -14.13947,-10.68044 -17.70241,-18.48874 -18.93206,-41.49034 -0.78013,-14.5927 -1.05584,-15.85927 -4.35651,-20.01262 -1.93802,-2.43869 -3.8517,-6.48408 -4.25263,-8.98978 -1.51619,-9.47586 -1.76472,-9.96675 -5.4569,-10.77769 -5.89666,-1.29512 -12.83881,-7.34596 -19.50301,-16.99901 -3.4375,-4.97919 -7.09375,-9.5072 -8.125,-10.06225 -1.03125,-0.55505 -5.08795,-1.62571 -9.01489,-2.37925 -5.63946,-1.08216 -8.42281,-2.52354 -13.24482,-6.85895 -5.70084,-5.12554 -6.20045,-6.06714 -7.54763,-14.22456 -0.79346,-4.80463 -1.44266,-16.06065 -1.44266,-25.0134 0,-18.56684 -0.10775,-18.37855 11.28579,-19.72795 3.41781,-0.40479 6.21421,-1.09885 6.21421,-1.54235 0,-0.44351 -1.72383,-1.82468 -3.83073,-3.06925 -5.46737,-3.22965 -6.89636,-6.99426 -4.45037,-11.72429 1.8981,-3.67051 1.84074,-3.94765 -1.7533,-8.47015 -4.60101,-5.78962 -4.65045,-7.53214 -0.2781,-9.80224 1.89062,-0.9816 5.78395,-4.08981 8.65184,-6.90711 5.33969,-5.2455 9.46046,-6.38784 14.09521,-3.9074 1.48834,0.79654 4.79639,0.75005 9.60531,-0.13497 4.03433,-0.74247 8.63158,-1.58891 10.21611,-1.88098 1.58454,-0.29206 6.00582,-3.60632 9.82504,-7.36501 3.81924,-3.7587 7.4251,-6.834 8.01304,-6.834 0.58793,0 3.08129,1.76685 5.54081,3.92634 3.66423,3.21723 4.97015,3.7112 7.23099,2.73519 1.51754,-0.65513 4.9848,-0.80413 7.70504,-0.33111 l 4.94589,0.86003 -3.63737,-3.12873 c -3.05772,-2.63015 -3.57997,-3.92373 -3.27717,-8.11744 0.318,-4.40438 -0.16469,-5.42135 -4.12103,-8.6825 -2.46466,-2.03158 -4.48121,-4.47702 -4.48121,-5.43429 0,-0.95728 1.76236,-3.747723 3.91635,-6.200983 2.154,-2.45326 3.70087,-4.6513 3.4375,-4.88452 -0.26336,-0.23323 -2.30698,-1.35378 -4.54135,-2.49012 -3.11064,-1.58199 -4.0625,-2.87861 -4.0625,-5.53397 0,-1.90735 0.62289,-4.09079 1.3842,-4.8521 1.01226,-1.01227 0.59243,-1.79316 -1.5625,-2.90621 -1.62069,-0.8371 -4.2376,-2.69851 -5.81538,-4.13647 -2.37046,-2.16039 -3.23883,-2.34723 -5,-1.07577 -7.21995,5.2124 -10.10535,6.49365 -14.63132,6.49699 -6.23368,0.005 -18.6815,-5.74502 -25.21295,-11.645778 -2.6673,-2.40975 -8.00961,-5.77885 -11.87181,-7.4869 -5.42092,-2.39739 -8.20187,-4.70243 -12.19564,-10.1086 -6.28984,-8.51424 -9.03974,-8.97116 -12.55246,-2.08567 -4.88178,9.56909 -11.21348,11.17202 -20.16654,5.10535 -3.02533,-2.04999 -5.95343,-3.73749 -6.50689,-3.75 -0.55345,-0.0125 -2.31587,2.93038 -3.91649,6.53976 -1.60061,3.60937 -4.09336,7.62722 -5.53943,8.92855 -2.6497,2.38447 -4.31659,2.58885 -15.86793,1.94559 -7.74602,-0.43135 -12.02079,1.85872 -17.92421,9.602338 -2.3399,3.06927 -6.81273,7.0798 -9.93961,8.91228 -5.23984,3.07075 -6.62414,3.30553 -17.6689,2.99671 l -11.98365,-0.33507 -12.31142,13.25792 c -9.17173,9.876873 -12.97995,13.161823 -14.93288,12.881053 -1.6202,-0.23293 -5.13838,-3.95764 -9.21114,-9.75187 -3.62433,-5.156253 -8.21066,-11.343753 -10.19186,-13.750003 l -3.6022,-4.375 -3.13358,2.9074 c -2.80324,2.60091 -3.63803,2.76812 -7.91889,1.58612 -4.25903,-1.17598 -5.27749,-0.98021 -9.26061,1.78009 -2.72506,1.88847 -6.22238,3.10139 -8.94256,3.10139 -5.42069,0 -6.72592,1.47675 -7.638,8.641783 -0.92728,7.28436 -4.21795,11.42741 -10.82583,13.63004 -5.00191,1.6673 -5.8095,1.61198 -10.6256,-0.72786 -3.78317,-1.83801 -5.8134,-2.19589 -7.40482,-1.30529 -1.20591,0.67486 -9.74933,1.36149 -18.98537,1.52584 -15.69237,0.27924 -16.99762,0.49124 -19.91828,3.23505 -4.31175,4.05068 -3.95996,5.55619 2.30564,9.86703 6.34811,4.36761 12.73251,11.31667 13.9651,15.20022 1.53655,4.84123 -1.81594,8.43837 -13.04641,13.99845 -8.17599,4.04785 -10.8199,5.97948 -11.12497,8.12783 -0.24368,1.71606 0.38817,3.1206 1.61575,3.59167 2.76249,1.06007 6.18912,8.23004 8.624,18.0451 2.65939,10.72009 2.60522,11.44026 -1.16667,15.5102 -1.76116,1.90033 -2.92628,4.17392 -2.58916,5.05243 0.33712,0.87851 1.31093,3.92699 2.16403,6.77439 1.42102,4.74292 2.39631,5.61681 11.62951,10.42045 18.20239,9.46994 23.68545,18.00303 18.41414,28.65729 -2.97827,6.01964 -2.01044,7.51394 4.14971,6.40702 8.03603,-1.44402 16.68817,-6.29957 18.89582,-10.60427 3.92713,-7.65752 15.46697,-19.1704 31.27765,-31.20454 l 6.36459,-4.84435 7.25382,2.49567 c 3.9896,1.37263 10.96929,3.10444 15.51041,3.84848 12.67964,2.07748 15.92644,3.42813 20.24358,8.4212 7.71584,8.92388 14.81357,13.85816 23.7722,16.52614 7.46752,2.22393 9.11022,3.26074 11.93922,7.53567 3.2014,4.83763 3.2596,5.28477 2.41834,18.57971 -0.57961,9.15991 -0.42695,13.89167 0.46599,14.44354 0.73039,0.45141 2.44495,3.01017 3.81012,5.68613 3.02372,5.92697 3.26787,16.06972 0.51497,21.39323 -1.08194,2.09225 -1.64362,4.12765 -1.24815,4.5231 0.39545,0.39546 3.2545,0.13881 6.35343,-0.57033 4.93743,-1.12985 5.44325,-1.05897 4.08892,0.57292 -0.85005,1.02423 -1.66694,3.75986 -1.81532,6.07916 -0.24063,3.76166 0.0759,4.21691 2.93133,4.21691 4.6873,0 12.33085,8.15685 14.09855,15.04531 2.21917,8.64781 2.25914,8.70469 6.11652,8.70469 5.19017,0 11.33285,2.85319 18.72853,8.69914 7.51469,5.94002 9.92084,9.30197 12.85,17.95447 1.8067,5.33685 3.31151,7.16155 9.44376,11.45126 4.27034,2.98725 8.15955,6.89952 9.3809,9.43648 1.14745,2.38351 4.10058,8.46956 6.5625,13.52455 2.46191,5.055 4.4762,10.04246 4.4762,11.08328 0,1.39957 0.73244,1.65471 2.8125,0.9797 5.56361,-1.80545 11.96178,-2.08765 14.65485,-0.64637 3.40798,1.82389 6.67236,9.3204 5.57045,12.79224 -0.72096,2.27151 -0.45784,2.4728 2.13239,1.63129 7.37619,-2.3964 12.87482,-2.08405 16.5762,0.94161 3.50494,2.86506 3.79361,2.89834 8.97626,1.03466 10.46569,-3.76343 17.2304,2.39213 22.55675,20.52558 1.81215,6.16941 3.43968,11.38804 3.61673,11.59696 0.17706,0.20891 2.21348,-0.77335 4.5254,-2.18282 5.8841,-3.5873 9.1694,-3.25854 12.37121,1.23797 2.0844,2.92728 2.52541,4.80976 1.90347,8.125 -0.44522,2.37325 -0.52232,4.31499 -0.17135,4.31499 0.35098,0 2.55404,-1.68218 4.89569,-3.73816 l 4.25754,-3.73818 5.32775,4.21601 c 5.80301,4.59209 12.10684,13.15689 13.36072,18.15278 0.44515,1.77361 -0.0875,5.60045 -1.21655,8.7402 -1.10463,3.07185 -1.76595,5.97751 -1.46958,6.45702 0.29636,0.47953 3.06268,1.25033 6.1474,1.71292 4.35319,0.6528 6.42245,1.82844 9.24475,5.25237 3.55853,4.31713 3.77986,4.39336 10.36565,3.57053 5.80028,-0.7247 7.04496,-0.49216 9.01446,1.68411 3.81946,4.22045 5.68481,11.53751 5.74245,22.52538 0.0513,9.76937 0.29899,10.73802 3.75226,14.67109 5.32739,6.06755 6.40394,11.52919 5.02515,25.49393 -0.81816,8.28649 -0.74512,13.84498 0.24166,18.39399 1.71885,7.9237 0.29688,10.35601 -6.05434,10.35601 -2.35621,0 -6.00277,0.8888 -8.10347,1.97511 -3.73261,1.93022 -3.80036,2.12787 -2.9799,8.69458 1.4932,11.95113 -6.03085,24.02923 -18.24118,29.28198 -4.68536,2.01559 -6.08092,3.25686 -6.06618,5.39559 0.0403,5.84573 2.55383,7.10002 13.56239,6.76784 l 7.95652,-0.24009 z M 221.31129,611.52577 c -3.4375,-1.65461 -7.5091,-3.02844 -9.04799,-3.05295 -3.15673,-0.0503 -15.52893,-10.40462 -17.67328,-14.79086 -2.01951,-4.13089 -1.72869,-9.07277 0.69128,-11.7468 1.15226,-1.27324 5.0463,-3.17294 8.65343,-4.22155 l 6.55841,-1.90659 -0.68214,-6.60933 c -0.76001,-7.36376 0.82112,-11.61753 4.87573,-13.11743 1.76508,-0.65295 3.31827,-3.31125 4.88865,-8.367 l 2.30163,-7.40999 -2.78286,-2.1597 c -1.53057,-1.18784 -3.14456,-2.17221 -3.58663,-2.1875 -0.44207,-0.0153 -1.14121,-0.90719 -1.55365,-1.98199 -1.02723,-2.67692 1.86919,-7.81271 7.35742,-13.04581 2.52356,-2.40625 5.41465,-5.9531 6.42463,-7.8819 l 1.83634,-3.50689 -4.29984,0.80665 c -2.42947,0.45578 -4.63451,0.26514 -5.06923,-0.43825 -0.42316,-0.6847 -1.89383,-0.95086 -3.26815,-0.59147 -1.37431,0.35938 -2.49875,0.29541 -2.49875,-0.14219 0,-1.59487 6.03642,-10.20012 9.22544,-13.15134 1.801,-1.66672 3.27456,-3.44896 3.27456,-3.96055 0,-0.51159 -1.90257,-2.10601 -4.22793,-3.54316 -2.32536,-1.43716 -4.90947,-4.25839 -5.74245,-6.26939 -2.00799,-4.84771 -0.54983,-11.13808 2.95172,-12.7335 2.16959,-0.98852 2.64977,-2.08925 2.28277,-5.2328 -0.35405,-3.03275 0.30346,-4.70264 2.76057,-7.01097 1.77392,-1.66652 3.22532,-4.25104 3.22532,-5.7434 0,-5.05705 3.71059,-6.85084 14.17151,-6.85084 9.58798,0 9.59775,0.004 8.02658,2.8125 -0.8652,1.54687 -3.14922,4.69351 -5.07559,6.99252 -3.74315,4.46723 -3.84005,6.10836 -0.48561,8.22428 1.53727,0.96969 2.70921,0.90201 4.30061,-0.24833 1.20312,-0.86967 4.03476,-2.42922 6.29254,-3.46564 2.25777,-1.03644 4.73555,-3.26824 5.50617,-4.95958 1.30204,-2.85767 12.06796,-9.35575 15.50048,-9.35575 1.76115,0 3.01331,-2.81884 3.01331,-6.7835 0,-6.3214 10.88285,-9.82383 13.76888,-4.43123 0.74626,1.3944 3.4892,3.38848 6.09544,4.43128 6.77583,2.71115 10.41675,9.67565 10.74881,20.56072 0.19321,6.33338 0.92575,9.36749 2.947,12.20607 1.47943,2.07767 2.68988,5.47596 2.68988,7.55176 0,2.0758 0.64204,6.55564 1.42675,9.95521 2.01874,8.74563 0.70315,12.16329 -7.80999,20.28914 l -7.49025,7.14949 2.68157,5.51947 c 2.33952,4.81545 2.50264,6.18393 1.27887,10.7287 -0.77149,2.86507 -2.71059,6.78166 -4.30912,8.70355 -4.26852,5.13198 -5.77784,8.48279 -5.77784,12.82732 0,4.24393 -2.86416,11.97408 -5.55639,14.99627 -0.94107,1.05641 -2.37631,4.452 -3.18942,7.54575 -0.81311,3.09375 -3.12421,8.52131 -5.13579,12.06125 -5.56886,9.79999 -9.23036,10.39985 -16.35745,2.67983 l -4.85501,-5.25894 -4.1064,2.21145 c -2.97072,1.59984 -5.46405,4.85549 -9.01547,11.77194 -5.25425,10.23272 -10.84753,15.3411 -16.65643,15.21242 -1.78895,-0.0396 -6.06514,-1.42584 -9.50264,-3.08045 z m 14.33382,-11.78968 c 1.44797,-2.03348 3.26063,-5.55026 4.02812,-7.81503 2.30561,-6.80363 6.09781,-11.17085 11.94646,-13.75799 6.71702,-2.97126 10.70467,-2.24207 16.09556,2.94323 l 3.90397,3.75507 2.73902,-4.43181 c 1.50646,-2.43752 2.9488,-6.72368 3.2052,-9.52483 0.31251,-3.41414 1.69568,-6.49331 4.19599,-9.341 2.82014,-3.21196 3.94709,-6.01772 4.62074,-11.50424 1.17586,-9.57681 2.36937,-12.48667 6.83095,-16.65442 4.57389,-4.27265 4.77966,-8.55038 0.60017,-12.4768 -4.86815,-4.57339 -4.1817,-9.26444 2.16262,-14.77896 11.93658,-10.37535 13.78925,-12.61302 12.87471,-15.55002 -0.47883,-1.53781 -1.18047,-5.88977 -1.5592,-9.67102 -0.51268,-5.1189 -1.58578,-7.90353 -4.20112,-10.90159 -3.326,-3.81272 -3.47395,-4.48724 -2.78546,-12.69945 l 0.7271,-8.67284 -5.2147,-2.66033 c -5.23055,-2.66843 -7.62895,-2.53793 -7.62895,0.41509 0,2.41826 -4.97888,6.4391 -11.45708,9.25248 -3.20764,1.39304 -6.72782,3.89988 -7.82262,5.57075 -1.09481,1.67089 -4.73645,4.81725 -8.09255,6.99193 -6.93109,4.4912 -13.59035,5.15216 -20.94556,2.07896 -5.60083,-2.34018 -6.68219,-2.34715 -6.68219,-0.0431 0,1.00755 -1.75911,3.63145 -3.90913,5.83089 l -3.90913,3.99897 4.17816,1.98163 c 5.93497,2.81484 8.20218,7.36126 6.69318,13.4218 -0.9823,3.94517 -0.75783,5.62176 1.24871,9.32647 2.17414,4.01419 2.27135,5.10057 0.87379,9.76522 -0.86488,2.8867 -3.56565,7.45472 -6.00172,10.15116 l -4.42921,4.90261 3.25267,3.86558 c 4.03068,4.79018 4.04567,6.25046 0.13272,12.9274 -1.71597,2.92808 -3.48363,7.97712 -3.92813,11.2201 -0.66031,4.81751 -1.46169,6.23425 -4.38004,7.74338 -3.19076,1.65001 -3.57187,2.49961 -3.57187,7.96275 0,8.19207 -0.80524,9.85075 -5.79418,11.93527 -4.9818,2.08153 -6.11088,4.29468 -4.56184,8.94183 1.23029,3.69085 1.29966,3.73855 12.15963,8.361 8.29578,3.53103 10.11092,3.17063 14.40521,-2.86014 z"
     style="fill:#006631;fill-opacity:1"
     sodipodi:nodetypes="cssssscssssssscssscsssssscsscssssssscscccsssssssssscssssssssssssscssssssssscsssssssssssssssscsscsscsscssssssssssssssssssssscsssscsssssssscsssssssssssssssssssssssssssssssssssssssssssssssssssssssssscssscssssssssssssssssssssccssssssssssssssssssssssssssssssscsscssssscscssssssssssssssssssssssssssscssssssssssssssssssssssssssssssscssssscsssssscssssscsssssscsssscsssssssssssssssssssssssscssssssssscscssssssssssssssssscssssscssscsssssssssssssscsssssscssscscssscssssssssssssscsssssssssssssscsssssssscsscssssscssssssscssscsssssssscssssscsssssssss" />
  <path
     inkscape:connector-curvature="0"
     id="path3342"
     d="m 974.31135,397.601 c -32.91655,-1.84294 -63.94213,-10.50472 -87.48694,-24.4248 -11.50278,-6.80063 -18.52666,-12.22177 -28.9998,-22.38256 -19.92421,-19.32996 -33.89143,-41.12911 -42.13286,-65.75829 -17.63855,-52.71197 -9.27222,-109.71817 23.26076,-158.49329 34.96939,-52.427832 86.65682,-78.423258 151.01047,-75.948459 19.60592,0.753979 31.06072,3.22394 59.71382,12.875825 13.1266,4.421735 25.1001,8.03952 26.6078,8.03952 5.7072,0 11.6064,-9.098173 11.6215,-17.923624 0.015,-3.208791 0.1054,-3.281787 4.4878,-3.281787 h 4.4822 l 0.5738,4.291566 c 0.3156,2.360372 2.1593,24.285262 4.0969,48.721979 1.9377,24.43672 3.7574,46.13439 4.044,48.21708 l 0.521,3.78669 h -4.425 -4.425 l -2.7479,-7.82582 c -3.5171,-10.01768 -12.174,-27.44325 -17.6106,-35.44906 -16.0066,-23.57053 -40.4295,-38.660193 -69.774,-43.109666 -26.3547,-3.996157 -54.11644,0.122514 -75.74264,11.236995 -33.88942,17.416971 -58.22234,56.530601 -66.24783,106.489221 -2.31411,14.40502 -2.35796,48.83225 -0.0812,63.76777 6.03776,39.60902 21.9966,73.93647 45.00969,96.81556 10.73083,10.66841 18.26549,16.00651 31.98093,22.65772 33.07559,16.03979 71.56205,15.32024 108.24925,-2.02381 l 9.3405,-4.41578 -0.015,-53.33002 c -0.015,-54.80566 -0.7045,-68.27174 -3.9001,-75.46959 -2.0946,-4.7182 -8.8681,-11.22275 -13.8575,-13.30743 -2.8732,-1.20056 -17.944,-3.35328 -23.8876,-3.41213 -1.4188,-0.0146 -1.7674,-0.91373 -1.7674,-4.56151 v -4.54403 h 64.1212 64.1211 v 4.39584 4.39586 l -7.3208,0.64104 c -9.6416,0.84423 -13.7716,2.09081 -18.6606,5.63236 -4.4113,3.19546 -7.6948,9.00804 -9.4879,16.79507 -0.7649,3.32192 -1.2999,25.68865 -1.5962,66.72663 l -0.4455,61.72977 -13.192,6.28464 c -36.5874,17.43025 -75.3811,24.6276 -119.44523,22.16052 z m 181.25585,-11.44366 v -4.44265 l 7.5414,-1.67778 c 4.1477,-0.92279 10.3958,-3.1268 13.8844,-4.89782 7.9886,-4.05537 14.1872,-11.99306 23.3967,-29.9616 3.5631,-6.95196 33.079,-74.927 65.5908,-151.05564 32.5116,-76.12864 59.6662,-139.631303 60.3432,-141.117012 1.0467,-2.297476 1.8577,-2.701303 5.4252,-2.701303 h 4.1945 l 57.9238,138.592555 c 31.8583,76.22591 60.5433,144.17172 63.745,150.99071 13.162,28.03355 23.4313,37.64706 43.5529,40.77192 l 7.8258,1.21534 v 4.36297 4.36297 h -65.6359 -65.6357 v -4.36022 -4.3602 l 8.7895,-1.17601 c 11.1322,-1.48949 18.6229,-5.00171 22.2019,-10.40991 2.4318,-3.6745 2.5761,-4.53299 2.064,-12.27038 -0.6663,-10.06938 -2.7536,-16.15373 -17.7503,-51.74006 l -11.064,-26.25432 h -64.795 -64.7948 l -12.5781,29.28367 c -14.0964,32.81906 -17.5797,42.74322 -17.5797,50.08648 0,12.43739 8.4718,18.54263 29.4663,21.23506 l 8.9055,1.14207 v 4.41192 4.4119 h -52.5088 -52.5086 z m 218.9544,-125.75467 c -3.3977,-9.54193 -56.0649,-133.02427 -56.5277,-132.53354 -0.6667,0.70723 -57.4093,132.17976 -57.4093,133.01768 0,0.25362 25.7115,0.46112 57.1367,0.46112 35.058,0 57.0068,-0.36526 56.8003,-0.94526 z m 148.6062,125.65331 v -4.54401 h 9.3809 c 22.5756,0 34.3268,-8.17735 36.9329,-25.70107 1.5264,-10.26215 1.6075,-253.53285 0.088,-263.096529 -1.3995,-8.807989 -4.6011,-14.956202 -9.8414,-18.900089 -5.8114,-4.373622 -12.4834,-6.195549 -25.607,-6.99262 l -10.953,-0.665233 V 61.635497 57.11458 l 75.986,0.562055 c 44.1323,0.32644 80.6426,1.034648 87.0938,1.689416 37.6852,3.824887 54.9855,10.727649 73.2092,29.210196 10.4679,10.616757 15.0175,17.439483 18.6942,28.035013 11.3167,32.61045 0.7745,69.28356 -25.793,89.72681 -11.1739,8.59818 -26.0159,15.49024 -43.1894,20.05545 l -8.3817,2.22819 37.0091,51.45303 c 40.219,55.91554 47.9334,65.92772 59.1779,76.80467 13.3094,12.87424 25.5009,18.96837 45.7331,22.86009 l 11.6691,2.24462 v 4.30795 4.30793 l -44.6829,-0.0581 -44.6828,-0.0581 -56.0429,-77.67176 -56.0429,-77.67178 -17.47,-0.0234 -17.47,-0.0234 0.3866,60.33446 c 0.4066,63.48636 0.6146,66.467 5.1019,73.12567 2.8976,4.29966 9.8652,9.55528 14.5828,10.99951 2.0687,0.63329 9.1004,1.38908 15.626,1.67955 l 11.865,0.52809 v 4.41956 4.41955 h -71.1896 -71.1897 v -4.54401 z m 137.7697,-168.61707 c 20.0035,-3.56215 34.8827,-10.70023 46.463,-22.29007 8.0567,-8.06335 13.7538,-17.07576 16.8787,-26.70083 2.9316,-9.02941 3.6651,-28.83625 1.4583,-39.38149 -5.0312,-24.04279 -23.8109,-43.662734 -48.073,-50.223921 -9.0324,-2.442619 -32.7689,-2.371351 -48.2172,0.144762 l -11.3599,1.850264 v 69.708555 69.70856 l 16.9137,-0.60458 c 9.3026,-0.33251 20.974,-1.32757 25.9364,-2.21125 z m 197.4779,168.74153 v -4.41954 l 11.9889,-0.42746 c 11.0351,-0.39344 12.5182,-0.6881 18.6449,-3.70428 7.9236,-3.90068 12.213,-8.69727 14.5886,-16.31282 1.5992,-5.12673 1.7324,-15.60954 1.7324,-136.32056 0,-139.334247 0.072,-137.162329 -4.8094,-145.252684 -2.672,-4.428804 -8.9612,-8.906966 -15.0474,-10.714358 -2.6863,-0.797773 -9.8824,-1.766788 -15.9912,-2.153328 l -11.1068,-0.702793 V 61.643591 57.11458 l 75.9861,0.562055 c 89.3696,0.661048 103.7574,1.68198 125.4653,8.902795 27.1218,9.021634 47.7592,29.948089 55.2076,55.98066 3.2451,11.34172 3.2324,30.76326 -0.028,42.29654 -6.2592,22.14363 -20.9173,39.69254 -42.5575,50.95027 -8.4365,4.38883 -21.7177,9.27845 -30.5459,11.24574 -3.1934,0.71163 -5.8063,1.43779 -5.8063,1.6137 0,0.95133 76.9886,107.08501 82.3058,113.46414 8.7882,10.54281 22.2249,23.09003 29.0406,27.11811 7.6882,4.54392 20.2602,8.78535 32.2713,10.88759 l 9.8692,1.72736 v 4.36822 4.36824 l -44.6828,-0.0332 -44.6828,-0.0332 -56.043,-77.67035 -56.0429,-77.67036 -17.4697,-0.0496 -17.4697,-0.0496 0.3384,60.83936 c 0.3815,68.57019 0.2879,67.6742 7.9325,75.9676 6.2621,6.79351 12.2199,8.8755 26.921,9.40753 l 12.3698,0.44768 v 4.42211 4.42211 h -71.1897 -71.1895 v -4.41955 z m 126.8047,-167.34202 c 28.1959,-2.83339 48.3116,-12.17978 62.2655,-28.93052 6.1169,-7.34295 11.5274,-18.30229 13.4007,-27.14406 1.9295,-9.10754 1.8961,-23.77946 -0.076,-33.48746 -4.9366,-24.29583 -23.4102,-43.727319 -47.8979,-50.381409 -9.0982,-2.472304 -32.8243,-2.430046 -48.2171,0.08592 l -11.3601,1.856778 v 69.554611 69.55464 h 10.4274 c 5.735,0 15.3911,-0.4988 21.4578,-1.10845 z"
     style="fill:#003883;fill-opacity:1;stroke-width:0.80782545"
     sodipodi:nodetypes="sssssssscsccsscccssssssssscssssscccccsssscssccsssscscssscccccccsscscccsssccccccccsscccscssscccsssssscssscccccccccsssscccccccsssssscccssccssssssscccssscsssssscccccccccsssccccccccsscsscccscc" />
  <text
     xml:space="preserve"
     style="font-style:normal;font-weight:normal;font-size:400.2722168px;line-height:1.25;font-family:sans-serif;letter-spacing:0px;word-spacing:0px;fill:#ffffff;fill-opacity:1;stroke:#ffffff;stroke-width:10;stroke-miterlimit:4;stroke-dasharray:none;stroke-opacity:1"
     x="990.80817"
     y="727.36505"
     id="text840"><tspan
       sodipodi:role="line"
       id="tspan838"
       x="990.80817"
       y="727.36505"
       style="font-style:normal;font-variant:normal;font-weight:bold;font-stretch:normal;font-size:400.2722168px;font-family:'Ubuntu Mono';-inkscape-font-specification:'Ubuntu Mono, Bold';font-variant-ligatures:normal;font-variant-caps:normal;font-variant-numeric:normal;font-feature-settings:normal;text-align:start;writing-mode:lr-tb;text-anchor:start;fill:#ffffff;fill-opacity:1;stroke:#ffffff;stroke-width:10;stroke-miterlimit:4;stroke-dasharray:none;stroke-opacity:1">L A B</tspan></text>
</svg>
